# This file uses centimeters as units for non-parametric coordinates.

mtllib Turret_Bottom_Lo.mtl
g default
v -0.249349 0.102029 0.179025
v -0.321861 2.940736 0.192696
v -0.327611 0.199013 0.179713
v -0.329924 0.214530 -0.396996
v -0.249845 0.214771 0.253225
v 0.249695 0.101851 0.178854
v 0.321861 0.214490 0.192696
v 0.250458 2.941068 0.253225
v -0.330525 2.956145 0.165279
v 0.327634 0.199128 0.179796
v 0.330501 0.199151 0.164974
v 0.276082 0.117846 -0.398104
v 0.330045 0.214079 -0.396873
v 0.327699 2.956287 0.179744
v 0.332741 2.941165 0.165219
v -0.276488 3.036850 0.180270
v -0.277466 2.955915 -0.455725
v -0.330527 2.956032 -0.382242
v -0.329925 2.940750 -0.396995
v 0.276533 3.036729 0.180342
v 0.329925 2.940750 -0.396995
v 0.330501 2.956075 -0.382203
v -0.250458 0.214158 -0.470454
v 0.277612 2.956238 -0.455438
v 0.250458 0.214158 -0.470454
v -1.394218 -0.009089 1.323651
v -1.396967 0.151901 1.395021
v -1.465587 0.062281 1.323651
v 1.541403 0.062281 1.323651
v 1.470033 -0.009089 1.323651
v -1.411492 0.236621 1.268464
v -1.335971 0.237491 1.341061
v 1.410137 0.251045 1.340050
v 1.470033 0.062281 1.395021
v 1.485919 0.250698 1.267666
v -1.415449 0.236054 -1.461113
v -1.395808 0.148508 -1.611970
v -1.465587 0.150451 -1.542487
v 1.486621 0.240779 -1.481555
v 1.541403 0.154652 -1.541980
v 1.413994 0.239931 -1.557077
v -1.465587 0.062281 -1.540600
v -1.394218 -0.009089 -1.540600
v 1.470033 -0.009089 -1.540600
v 1.472801 0.155368 -1.611970
v 1.541403 0.062281 -1.540600
v -0.054182 0.952806 -0.062098
v 0.018046 0.954211 -0.133059
v 0.750627 0.571797 0.694982
v -0.798091 0.553514 -0.839381
vt 0.159707 0.546865
vt 0.159707 0.919660
vt 0.147962 0.919660
vt 0.141530 0.638703
vt 0.138404 0.550096
vt 0.147962 0.829804
vt 0.147962 0.741871
vt 0.061932 0.550691
vt 0.061932 0.638623
vt 0.235709 0.843188
vt 0.159781 0.829890
vt 0.159869 0.550624
vt 0.253108 0.550096
vt 0.231827 0.919660
vt 0.243551 0.919660
vt 0.231827 0.546865
vt 0.249983 0.550615
vt 0.231732 0.638714
vt 0.136430 0.639223
vt 0.147962 0.653985
vt 0.255175 0.638717
vt 0.255115 0.550096
vt 0.329581 0.550683
vt 0.243551 0.917654
vt 0.243551 0.843188
vt 0.235709 0.840892
vt 0.231732 0.829890
vt 0.329581 0.638628
vt 0.243551 0.829812
vt 0.243551 0.741867
vt 0.243551 0.652011
vt 0.253108 0.639223
vt 0.327576 0.639223
vt 0.237532 0.649643
vt 0.235763 0.652011
vt 0.155757 0.652011
vt 0.155900 0.741272
vt 0.147962 0.726492
vt 0.147962 0.741272
vt 0.243551 0.726479
vt 0.235651 0.741272
vt 0.063923 0.639223
vt 0.243551 0.741272
vt 0.150231 0.926949
vt 0.147962 0.926949
vt 0.150231 0.835899
vt 0.147962 0.835899
vt 0.150144 0.617701
vt 0.150231 0.546865
vt 0.241282 0.546865
vt 0.145694 0.578278
vt 0.149622 0.646474
vt 0.243551 0.926949
vt 0.241282 0.926949
vt 0.243551 0.835899
vt 0.241282 0.835899
vt 0.245819 0.576233
vt 0.241282 0.576275
vt 0.152082 0.644212
vt 0.192829 0.688773
vt 0.056426 0.638402
vt 0.054583 0.617375
vt 0.239378 0.644201
vt 0.241787 0.646502
vt 0.218413 0.664707
vt 0.335599 0.638914
vt 0.336914 0.617516
vt 0.149556 0.733246
vt 0.169181 0.713482
vt 0.239506 0.736204
vt 0.150181 0.763979
vt 0.147962 0.763120
vt 0.147962 0.802087
vt 0.241777 0.733896
vt 0.195125 0.691029
vt 0.243551 0.762979
vt 0.243551 0.802835
vt 0.241370 0.762618
vt 0.336870 0.577660
vt 0.054643 0.578408
vt 0.241969 0.642453
vt 0.149265 0.738042
vt 0.240648 0.737061
vn -0.307910 -0.581866 0.752744
vn -0.318153 -0.533636 0.783589
vn -0.640832 -0.479455 0.599548
vn -0.957727 -0.287637 -0.004823
vn -0.999987 -0.000815 0.005014
vn -0.999987 -0.000822 -0.005005
vn -0.710293 0.000626 0.703906
vn -0.401892 -0.000870 0.915687
vn -0.398667 0.000781 0.917095
vn 0.779446 -0.559663 0.281500
vn 0.844663 -0.535285 0.003890
vn 0.809851 -0.507921 0.293526
vn 0.004389 -0.567439 0.823404
vn 0.315988 -0.582838 0.748633
vn 0.324423 -0.532232 0.781971
vn 0.401922 -0.000847 0.915673
vn 0.709297 -0.000639 0.704910
vn 0.407123 0.000825 0.913373
vn -0.323347 0.534973 0.780545
vn -0.004386 0.567774 0.823173
vn -0.310327 0.584549 0.749666
vn -0.999987 0.000811 0.004964
vn -0.957239 0.289258 0.004763
vn -0.999987 0.000813 -0.005009
vn -0.999987 0.000813 -0.005009
vn -0.957239 0.289258 0.004763
vn -0.958070 0.286494 -0.004809
vn 0.758684 0.000598 0.651458
vn 0.931702 -0.000801 0.363223
vn 0.932542 0.000745 0.361061
vn 0.999987 -0.000823 0.005014
vn 0.957726 -0.287642 0.004809
vn 0.999988 -0.000814 -0.004876
vn 0.844464 -0.535599 -0.003789
vn 0.775769 -0.558543 -0.293619
vn 0.809227 -0.509180 -0.293065
vn 0.931699 0.000798 -0.363231
vn 0.759066 -0.000595 -0.651014
vn 0.759275 0.000599 -0.650770
vn 0.957224 0.289313 0.004575
vn 0.999988 0.000810 0.004840
vn 0.957723 0.287649 -0.004901
vn 0.957723 0.287649 -0.004901
vn 0.999988 0.000810 0.004840
vn 0.999987 0.000822 -0.005009
vn -0.745660 0.216280 -0.630250
vn -0.690397 0.214815 -0.690801
vn -0.759281 0.000604 -0.650763
vn 0.004472 -0.567662 -0.823250
vn -0.005462 -0.307997 -0.951372
vn 0.005940 -0.309760 -0.950796
vn -0.812100 -0.583504 0.004039
vn -0.844479 -0.535576 0.003750
vn -0.811893 -0.583792 -0.004040
vn 0.004389 -0.567439 0.823404
vn -0.004761 -0.613459 0.789713
vn 0.004751 -0.613461 0.789711
vn 0.844464 -0.535599 -0.003789
vn 0.811763 -0.583974 0.004017
vn 0.812101 -0.583502 -0.004052
vn -0.844432 0.535649 0.003846
vn -0.811952 0.583710 0.004031
vn -0.844475 0.535582 -0.003756
vn -0.844475 0.535582 -0.003756
vn -0.811952 0.583710 0.004031
vn -0.812100 0.583504 -0.004039
vn -0.004386 0.567774 0.823173
vn 0.004502 0.567665 0.823247
vn -0.004741 0.613449 0.789720
vn 0.811672 0.584099 0.004082
vn 0.844471 0.535587 0.003828
vn 0.811860 0.583839 -0.004028
vn -0.759281 0.000604 -0.650763
vn -0.710037 0.000615 -0.704164
vn -0.758795 -0.000577 -0.651330
vn -0.758795 -0.000577 -0.651330
vn -0.710037 0.000615 -0.704164
vn -0.710294 -0.000632 -0.703905
vn 0.004399 0.567451 -0.823396
vn -0.004753 0.613349 -0.789798
vn 0.004791 0.613279 -0.789852
vn 0.710458 -0.000625 -0.703740
vn 0.759275 0.000599 -0.650770
vn 0.759066 -0.000595 -0.651014
vn -0.004386 -0.567776 -0.823172
vn 0.004472 -0.567662 -0.823250
vn -0.004749 -0.613447 -0.789722
vn -0.007276 0.999953 0.006419
vn 0.007290 0.999953 0.006432
vn -0.006941 0.999956 -0.006396
vn -0.006941 0.999956 -0.006396
vn 0.007290 0.999953 0.006432
vn 0.007262 0.999954 -0.006215
vn -0.006024 0.000867 -0.999982
vn 0.006083 0.000872 -0.999981
vn -0.005788 -0.000864 -0.999983
vn -0.005788 -0.000864 -0.999983
vn 0.006083 0.000872 -0.999981
vn 0.006009 -0.000874 -0.999982
vn -0.007276 -0.999953 -0.006415
vn 0.006943 -0.999955 -0.006399
vn -0.006941 -0.999956 0.006400
vn -0.006941 -0.999956 0.006400
vn 0.006943 -0.999955 -0.006399
vn 0.007279 -0.999954 0.006227
vn 0.999987 -0.000823 0.005014
vn 0.999988 -0.000814 -0.004876
vn 0.999988 0.000810 0.004840
vn 0.999988 0.000810 0.004840
vn 0.999988 -0.000814 -0.004876
vn 0.999987 0.000822 -0.005009
vn -0.999987 -0.000822 -0.005005
vn -0.999987 -0.000815 0.005014
vn -0.999987 0.000813 -0.005009
vn 0.696518 -0.428376 0.575636
vn 0.628287 -0.429880 0.648428
vn 0.644147 -0.480542 0.595109
vn -0.696415 0.428357 0.575774
vn -0.628488 0.431069 0.647443
vn -0.641151 0.482777 0.596533
vn 0.641783 0.482175 0.596341
vn 0.627572 0.429974 0.649058
vn 0.695889 0.430517 0.574799
vn 0.639860 -0.479488 -0.600558
vn 0.627731 -0.430146 -0.648790
vn 0.695650 -0.430272 -0.575271
vn -0.895439 -0.269479 0.354358
vn -0.759282 -0.000608 0.650762
vn -0.931693 -0.000791 0.363246
vn 0.957726 -0.287642 0.004809
vn 0.931702 -0.000801 0.363223
vn 0.897074 -0.268421 0.351011
vn 0.894561 0.278263 0.349757
vn 0.758684 0.000598 0.651458
vn 0.932542 0.000745 0.361061
vn 0.931699 0.000798 -0.363231
vn 0.759275 0.000599 -0.650770
vn 0.897133 0.268363 -0.350905
vn -0.707107 -0.707106 0.000000
vn -0.707107 -0.707106 0.000000
vn -0.707107 -0.707106 0.000000
vn -0.707107 -0.707106 0.000000
vn -0.707107 -0.707106 0.000000
vn -0.707107 -0.707106 0.000000
vn 0.000000 -0.707106 0.707107
vn 0.000000 -0.707106 0.707107
vn 0.000000 -0.707106 0.707107
vn 0.000000 -0.707106 0.707107
vn 0.000000 -0.707106 0.707107
vn 0.000000 -0.707106 0.707107
vn -0.707063 -0.011073 0.707063
vn -0.710578 -0.016820 0.703417
vn -0.710105 -0.016043 0.703913
vn 0.707106 -0.707108 0.000000
vn 0.707106 -0.707108 0.000000
vn 0.707106 -0.707108 0.000000
vn 0.707106 -0.707108 0.000000
vn 0.707106 -0.707108 0.000000
vn 0.707106 -0.707108 0.000000
vn 0.703470 -0.014169 0.710583
vn 0.703666 -0.013905 0.710394
vn 0.699922 -0.018914 0.713969
vn -0.437873 0.897484 0.052815
vn -0.034606 0.841107 0.539760
vn -0.425394 0.904652 0.025397
vn -0.847504 0.530788 0.001080
vn -0.862647 0.505807 0.000039
vn -0.862893 0.505387 0.000021
vn -0.034606 0.841107 0.539760
vn -0.002336 0.534679 0.845052
vn 0.016245 0.833785 0.551850
vn 0.016245 0.833785 0.551850
vn -0.002336 0.534679 0.845052
vn -0.002574 0.539648 0.841887
vn 0.016245 0.833785 0.551850
vn 0.438413 0.898699 0.011621
vn 0.011795 0.892500 0.450893
vn 0.842934 0.538012 -0.002241
vn 0.835426 0.549600 -0.001789
vn 0.843061 0.537813 -0.002249
vn -0.001958 0.558311 -0.829629
vn -0.001312 0.544081 -0.839032
vn -0.001938 0.557859 -0.829933
vn -0.001938 0.557859 -0.829933
vn -0.001312 0.544081 -0.839032
vn -0.001301 0.543838 -0.839189
vn -0.705728 -0.015159 -0.708321
vn -0.706445 -0.014007 -0.707629
vn -0.706333 -0.014188 -0.707738
vn 0.420864 0.906147 -0.042075
vn 0.023613 0.907065 -0.420327
vn 0.430090 0.902763 -0.006389
vn 0.714053 -0.010459 -0.700014
vn 0.710568 -0.015666 -0.703454
vn 0.710252 -0.016135 -0.703762
vn 0.000000 -0.707106 -0.707108
vn 0.000000 -0.707106 -0.707108
vn 0.000000 -0.707106 -0.707108
vn 0.000000 -0.707106 -0.707108
vn 0.000000 -0.707106 -0.707108
vn 0.000000 -0.707106 -0.707108
vn -0.016601 0.896027 -0.443690
vn -0.025300 0.905671 -0.423226
vn -0.425394 0.904652 0.025397
vn -0.002341 0.892622 0.450801
vn 0.011795 0.892500 0.450893
vn 0.430090 0.902763 -0.006389
vn 0.430090 0.902763 -0.006389
vn 0.011795 0.892500 0.450893
vn 0.438413 0.898699 0.011621
vn -0.023893 0.916939 -0.398311
vn -0.025300 0.905671 -0.423226
vn 0.023613 0.907065 -0.420327
vn -0.025300 0.905671 -0.423226
vn -0.016601 0.896027 -0.443690
vn 0.023613 0.907065 -0.420327
vn 0.000000 -1.000000 0.000000
vn 0.000000 -1.000000 0.000000
vn 0.000000 -1.000000 0.000000
vn 0.000000 -1.000000 0.000000
vn 0.000000 -1.000000 0.000000
vn 0.000000 -1.000000 0.000000
vn 1.000000 -0.000004 0.000000
vn 1.000000 -0.000004 0.000000
vn 1.000000 0.000000 0.000000
vn 1.000000 0.000000 0.000000
vn 1.000000 -0.000004 0.000000
vn 1.000000 0.000000 0.000000
vn -1.000000 -0.000001 0.000000
vn -1.000000 0.000000 0.000000
vn -1.000000 -0.000001 0.000000
vn -1.000000 -0.000001 0.000000
vn -1.000000 0.000000 0.000000
vn -1.000000 0.000000 0.000000
vn 0.016245 0.833785 0.551850
vn 0.011795 0.892500 0.450893
vn -0.034606 0.841107 0.539760
vn -0.034606 0.841107 0.539760
vn 0.011795 0.892500 0.450893
vn -0.002341 0.892622 0.450801
vn 0.430090 0.902763 -0.006389
vn 0.438413 0.898699 0.011621
vn 0.420864 0.906147 -0.042075
vn -0.473152 0.880404 -0.031893
vn -0.437873 0.897484 0.052815
vn -0.470873 0.882195 -0.003264
vn -0.437873 0.897484 0.052815
vn -0.425394 0.904652 0.025397
vn -0.470873 0.882195 -0.003264
vn -0.577352 -0.577349 0.577350
vn -0.577352 -0.577349 0.577350
vn -0.577352 -0.577349 0.577350
vn 0.577350 -0.577350 0.577351
vn 0.577350 -0.577350 0.577351
vn 0.577350 -0.577350 0.577351
vn -0.437873 0.897484 0.052815
vn -0.522261 0.679737 0.514977
vn -0.034606 0.841107 0.539760
vn 0.016245 0.833785 0.551850
vn 0.499472 0.692870 0.520057
vn 0.424029 0.905388 0.021734
vn -0.534765 0.637292 -0.554873
vn -0.558569 0.682788 -0.470959
vn -0.023893 0.916939 -0.398311
vn 0.420864 0.906147 -0.042075
vn 0.520471 0.688095 -0.505604
vn 0.023613 0.907065 -0.420327
vn 0.023613 0.907065 -0.420327
vn 0.520471 0.688095 -0.505604
vn 0.520966 0.689189 -0.503600
vn -0.577350 -0.577349 -0.577352
vn -0.577350 -0.577349 -0.577352
vn -0.577350 -0.577349 -0.577352
vn 0.577348 -0.577350 -0.577352
vn 0.577348 -0.577350 -0.577352
vn 0.577348 -0.577350 -0.577352
s off
g initialShadingGroup pCube3
f 1/1/1 5/12/2 3/5/3
f 3/5/4 2/4/5 4/8/6
f 2/4/7 5/12/8 8/18/9
f 6/14/10 11/24/11 10/15/12
f 5/12/13 6/16/14 7/17/15
f 5/12/16 7/17/17 8/18/18
f 2/4/19 8/18/20 16/36/21
f 2/4/22 9/19/23 19/9/24
f 19/9/25 9/19/26 18/42/27
f 8/18/28 7/17/29 15/21/30
f 7/17/31 11/22/32 13/23/33
f 11/24/34 12/10/35 13/25/36
f 21/30/37 13/29/38 24/41/39
f 14/32/40 15/21/41 22/33/42
f 22/33/43 15/21/44 21/28/45
f 18/39/46 17/37/47 19/7/48
f 12/10/49 23/11/50 25/27/51
f 1/2/52 3/3/53 4/6/54
f 5/12/55 1/1/56 6/16/57
f 11/24/58 6/14/59 12/10/60
f 9/20/61 16/36/62 18/38/63
f 18/38/64 16/36/65 17/37/66
f 8/18/67 20/35/68 16/36/69
f 20/35/70 14/31/71 22/40/72
f 19/7/73 17/37/74 4/6/75
f 4/6/76 17/37/77 23/11/78
f 24/41/79 17/37/80 22/40/81
f 25/27/82 24/41/83 13/29/84
f 23/11/85 12/10/86 4/6/87
f 16/36/88 20/35/89 17/37/90
f 17/37/91 20/35/92 22/40/93
f 17/37/94 24/41/95 23/11/96
f 23/11/97 24/41/98 25/27/99
f 4/6/100 12/10/101 1/2/102
f 1/2/103 12/10/104 6/14/105
f 7/17/106 13/23/107 15/21/108
f 15/21/109 13/23/110 21/28/111
f 4/8/112 2/4/113 19/9/114
f 10/13/115 7/17/116 6/16/117
f 9/19/118 2/4/119 16/36/120
f 20/34/121 8/18/122 14/32/123
f 12/26/124 25/27/125 13/29/126
f 3/5/127 5/12/128 2/4/129
f 11/22/130 7/17/131 10/13/132
f 14/32/133 8/18/134 15/21/135
f 21/30/136 24/41/137 22/43/138
f 26/44/139 28/45/140 43/46/141
f 43/46/142 28/45/143 42/47/144
f 27/48/145 26/49/146 34/58/147
f 34/58/148 26/49/149 30/50/150
f 28/51/151 27/48/152 31/52/153
f 29/53/154 30/54/155 46/55/156
f 46/55/157 30/54/158 44/56/159
f 34/58/160 29/57/161 35/81/162
f 31/52/163 32/59/164 47/60/165
f 31/52/166 36/61/167 38/62/168
f 32/59/169 27/48/170 33/63/171
f 33/63/172 27/48/173 34/58/174
f 33/63/175 35/64/176 49/65/177
f 39/66/178 35/81/179 40/67/180
f 36/68/181 41/70/182 37/71/183
f 37/71/184 41/70/185 45/78/186
f 38/72/187 37/71/188 42/73/189
f 39/74/190 41/70/191 48/75/192
f 40/76/193 46/77/194 45/78/195
f 43/46/196 37/71/197 44/56/198
f 44/56/199 37/71/200 45/78/201
f 48/75/202 50/69/203 47/60/204
f 47/60/205 49/65/206 48/75/207
f 48/75/208 49/65/209 35/64/210
f 36/68/211 50/69/212 41/70/213
f 50/69/214 48/75/215 41/70/216
f 43/46/217 44/56/218 26/44/219
f 26/44/220 44/56/221 30/54/222
f 46/79/223 40/67/224 29/57/225
f 29/57/226 40/67/227 35/81/228
f 42/80/229 28/51/230 38/62/231
f 38/62/232 28/51/233 31/52/234
f 33/63/235 49/65/236 32/59/237
f 32/59/238 49/65/239 47/60/240
f 48/75/241 35/64/242 39/74/243
f 36/68/244 31/52/245 50/69/246
f 31/52/247 47/60/248 50/69/249
f 26/49/250 27/48/251 28/51/252
f 29/57/253 34/58/254 30/50/255
f 31/52/256 27/48/257 32/59/258
f 33/63/259 34/58/260 35/81/261
f 37/71/262 38/82/263 36/68/264
f 39/74/265 40/83/266 41/70/267
f 41/70/268 40/83/269 45/78/270
f 42/73/271 37/71/272 43/46/273
f 44/56/274 45/78/275 46/77/276
