# This file uses centimeters as units for non-parametric coordinates.

mtllib Arm_Lo.mtl
g default
v -0.354491 -0.343474 -0.854784
v 0.353740 -0.343474 -0.854784
v 0.353740 -0.343474 0.842309
v -0.354491 0.361674 0.842309
v 0.353740 0.361674 0.842309
v -0.354491 0.361674 -0.854784
vt 1.000000 1.000000
vt 0.000000 0.000000
vt 0.000000 1.000000
vt 0.000000 0.000000
vt 1.000000 0.000000
vt 0.000000 1.000000
vt 1.000000 1.000000
vt 1.000000 0.000000
vt 0.000000 1.000000
vt 1.000000 1.000000
vt 1.000000 0.000000
vt 0.000000 1.000000
vt 0.000000 0.000000
vt 1.000000 0.000000
vt 1.000000 1.000000
vt 0.000000 0.000000
vt 0.000000 1.000000
vt 1.000000 1.000000
vn 0.000000 -1.000000 0.000000
vn 0.000000 -1.000000 0.000000
vn 0.000000 -1.000000 0.000000
vn 0.000000 -1.000000 0.000000
vn 0.000000 -1.000000 0.000000
vn 0.000000 -1.000000 0.000000
vn 0.000000 1.000000 0.000000
vn 0.000000 1.000000 0.000000
vn -0.000000 1.000000 -0.000000
vn -0.000000 1.000000 -0.000000
vn 0.000000 1.000000 0.000000
vn 0.000000 1.000000 0.000000
vn 0.000000 -0.000000 1.000000
vn 0.000000 0.000000 1.000000
vn 0.000000 0.000000 1.000000
vn 1.000000 0.000000 0.000000
vn 1.000000 0.000000 0.000000
vn 1.000000 0.000000 0.000000
vn -0.000000 0.000000 -1.000000
vn 0.000000 0.000000 -1.000000
vn -0.000000 0.000000 -1.000000
vn -1.000000 0.000000 0.000000
vn -1.000000 0.000000 -0.000000
vn -1.000000 0.000000 0.000000
s off
g initialShadingGroup Box005
f 4/18/1 1/1/2 3/2/3
f 3/2/4 1/1/5 2/3/6
f 4/4/7 5/5/8 6/6/9
f 6/6/10 5/5/11 2/7/12
f 4/9/13 3/8/14 5/10/15
f 3/2/16 2/11/17 5/12/18
f 2/13/19 1/14/20 6/15/21
f 1/16/22 4/18/23 6/17/24
