# This file uses centimeters as units for non-parametric coordinates.

mtllib Head_Lo.mtl
g default
v -0.977465 0.802016 -0.980492
v 0.985761 0.802016 -0.980492
v 0.985761 -0.761412 -0.980492
v -0.977465 -0.761412 0.984708
v 0.985761 0.802016 0.984708
v -0.977465 0.802016 0.984708
vt 0.273404 0.997942
vt 0.535736 0.668526
vt 0.273404 0.668526
vt 0.003525 0.002120
vt 0.996399 0.998344
vt 0.003844 0.998662
vt 0.001856 0.001992
vt 0.331272 0.001992
vt 0.001856 0.331738
vt 0.331272 0.331738
vt 0.338041 0.001992
vt 0.600373 0.001992
vt 0.600373 0.331738
vt 0.997788 0.337781
vt 0.668372 0.337781
vt 0.997788 0.008035
vt 0.668372 0.008035
vt 0.809431 0.992628
vt 0.809431 0.662881
vt 0.547099 0.662881
vn 0.000000 0.000000 -1.000000
vn 0.000000 0.000000 -1.000000
vn 0.000000 0.000000 -1.000000
vn 0.000000 0.000000 1.000000
vn 0.000000 0.000000 1.000000
vn 0.000000 0.000000 1.000000
vn 0.000000 -1.000000 0.000000
vn 0.000000 -1.000000 0.000000
vn 0.000000 -1.000000 0.000000
vn 0.000000 -1.000000 0.000000
vn 0.000000 -1.000000 0.000000
vn 0.000000 -1.000000 0.000000
vn 1.000000 -0.000000 0.000000
vn 1.000000 -0.000000 0.000000
vn 1.000000 0.000000 0.000000
vn 0.000000 1.000000 0.000000
vn 0.000000 1.000000 0.000000
vn 0.000000 1.000000 0.000000
vn 0.000000 1.000000 0.000000
vn 0.000000 1.000000 0.000000
vn 0.000000 1.000000 0.000000
vn -1.000000 0.000000 0.000000
vn -1.000000 0.000000 -0.000000
vn -1.000000 0.000000 0.000000
s off
g initialShadingGroup Box002
f 3/2/1 1/1/2 2/3/3
f 4/4/4 5/5/5 6/6/6
f 1/7/7 3/8/8 4/9/9
f 4/9/10 3/8/11 5/10/12
f 3/11/13 2/12/14 5/13/15
f 2/14/16 1/15/17 5/16/18
f 5/16/19 1/15/20 6/17/21
f 6/19/22 1/18/23 4/20/24
