# This file uses centimeters as units for non-parametric coordinates.

mtllib tombstone_lo.mtl
g default
v 0.684921 0.228420 -1.003854
v 0.684921 0.228420 -0.373391
v -0.678175 0.228420 -0.373391
v -0.670699 0.243371 -0.988902
v 0.677445 0.243371 -0.388343
v -0.678175 -0.013299 -0.373391
v -0.678175 0.228420 -1.003854
v -0.678175 -0.013299 -1.003854
v 0.684921 -0.013299 -1.003854
v 0.684921 -0.013299 -0.373391
v -0.080533 1.236393 -0.750409
v -0.080476 1.271649 -0.750409
v -0.062848 1.254021 -0.750409
v 0.043881 1.237936 -0.750409
v 0.054826 1.408107 -0.750409
v 0.061415 1.266678 -0.750409
v 0.131580 1.236393 -0.750409
v 0.131638 1.271649 -0.750409
v 0.149266 1.254021 -0.750409
v 0.268327 1.386451 -0.750409
v 0.300404 1.407355 -0.750409
v 0.346299 1.365395 -0.750409
v 0.349243 1.267950 -0.750409
v 0.313698 1.236393 -0.750409
v 0.268327 1.203102 -0.750409
v 0.225211 1.203102 -0.750409
v 0.180708 1.330370 -0.750409
v 0.268327 1.342854 -0.750409
v 0.326240 1.342854 -0.750409
v 0.283315 1.390340 -0.750409
v 0.263010 1.376839 -0.750409
v 0.249139 1.208188 -0.750409
v 0.263010 1.208188 -0.750409
v 0.225211 1.351755 -0.750409
v 0.200012 1.335110 -0.750409
v 0.225211 1.317539 -0.750409
v 0.268327 1.300894 -0.750409
v 0.326240 1.300894 -0.750409
v 0.326240 1.336843 -0.750409
v 0.268327 1.294305 -0.750409
v 0.326240 1.254888 -0.750409
v 0.326240 1.294305 -0.750409
v 0.462958 1.507841 -0.547659
v 0.561094 1.503376 -0.547659
v 0.611928 1.398971 -0.547659
v 0.606979 0.230275 -0.547659
v -0.584388 0.232449 -0.547659
v -0.593084 1.404250 -0.547659
v -0.532836 1.528926 -0.547659
v -0.444417 1.530426 -0.547659
v -0.221273 1.711466 -0.547659
v 0.189677 1.726305 -0.547659
v 0.423145 1.464761 -0.547659
v 0.561094 1.503376 -0.796854
v 0.548241 1.375466 -0.759474
v 0.543704 0.304065 -0.759474
v -0.521421 0.306009 -0.759474
v -0.529391 1.379912 -0.759474
v -0.532836 1.528926 -0.796854
v -0.391428 1.382964 -0.759474
v -0.221273 1.711466 -0.796854
v 0.165336 1.659021 -0.796854
v 0.423145 1.464761 -0.796854
v 0.189677 1.726305 -0.796854
v -0.048705 1.698814 -0.759474
v -0.583114 1.404011 -0.806821
v -0.410465 1.489037 -0.796854
v -0.574493 0.242399 -0.806821
v -0.539361 1.380151 -0.806821
v 0.558209 1.375520 -0.806821
v 0.601960 1.398917 -0.806821
v -0.531316 0.296059 -0.806821
v 0.597054 0.240261 -0.806821
v 0.553629 0.294079 -0.806821
v 0.462958 1.507841 -0.796854
v -0.444417 1.530426 -0.796854
vt 0.417637 0.781317
vt 0.352741 0.781317
vt 0.417637 0.415359
vt 0.352741 0.415359
vt 0.318563 0.420719
vt 0.314506 0.415359
vt 0.379402 0.415359
vt 0.314506 0.781317
vt 0.379402 0.781317
vt 0.287488 0.420719
vt 0.352384 0.589983
vt 0.403664 0.746059
vt 0.242429 0.384115
vt 0.822609 0.782321
vt 0.653345 0.416363
vt 0.352384 0.420719
vt 0.356398 0.585968
vt 0.238414 0.382108
vt 0.238414 0.748066
vt 0.383459 0.420719
vt 0.383459 0.589983
vt 0.387473 0.585968
vt 0.407678 0.748066
vt 0.407678 0.382108
vt 0.287488 0.589983
vt 0.653345 0.782321
vt 0.318563 0.589983
vt 0.822609 0.416363
vt 0.069583 0.761531
vt 0.074331 0.766264
vt 0.069598 0.770997
vt 0.663093 0.795912
vt 0.661324 0.833882
vt 0.658385 0.788196
vt 0.085183 0.761531
vt 0.089932 0.766264
vt 0.085199 0.770997
vt 0.447591 0.816648
vt 0.446163 0.814067
vt 0.436015 0.807333
vt 0.424067 0.801592
vt 0.429250 0.802864
vt 0.436015 0.767423
vt 0.436015 0.798147
vt 0.442439 0.768789
vt 0.447591 0.767423
vt 0.446163 0.768789
vt 0.447591 0.791909
vt 0.459771 0.776361
vt 0.469314 0.784833
vt 0.463139 0.781326
vt 0.468524 0.810995
vt 0.463139 0.793678
vt 0.463139 0.804943
vt 0.456203 0.822260
vt 0.451614 0.817692
vt 0.447591 0.793678
vt 0.463139 0.791909
vt 0.447591 0.804943
vt 0.463139 0.803330
vt 0.647151 0.715991
vt 0.658717 0.715991
vt 0.670807 0.740664
vt 0.697154 0.740664
vt 0.700634 0.757156
vt 0.700634 0.729126
vt 0.700634 0.415359
vt 0.667017 0.420719
vt 0.667017 0.740572
vt 0.744243 0.415359
vt 0.744243 0.729959
vt 0.744243 0.763432
vt 0.619062 0.744563
vt 0.642800 0.744563
vt 0.634349 0.814142
vt 0.629335 0.761147
vt 0.689052 0.761147
vt 0.603853 0.736211
vt 0.603853 0.625881
vt 0.666568 0.669947
vt 0.733471 0.669947
vt 0.666568 0.599729
vt 0.661123 0.376591
vt 0.947084 0.377113
vt 0.939195 0.069578
vt 0.948302 0.089467
vt 0.658984 0.088274
vt 0.670139 0.063308
vt 0.685361 0.062860
vt 0.696024 0.087454
vt 0.749455 0.016841
vt 0.788036 0.002656
vt 0.845501 0.013340
vt 0.922092 0.068420
vt 0.839873 0.088374
vt 0.780924 0.033649
vt 0.754346 0.005604
vt 0.712970 0.017125
vt 0.699425 0.005149
vt 0.621865 0.097218
vt 0.628433 0.059269
vt 0.615282 0.080270
vt 0.573209 0.002319
vt 0.893062 0.001735
vt 0.570874 0.316919
vt 0.843707 0.333165
vt 0.781027 0.403383
vt 0.670696 0.399399
vt 0.610788 0.350794
vt 0.587050 0.350391
vt 0.894391 0.315502
vt 0.880743 0.343532
vt 0.854396 0.344731
vt 0.326761 0.423390
vt 0.365544 0.709344
vt 0.365544 0.423383
vt 0.412008 0.423400
vt 0.412008 0.711045
vt 0.412008 0.730934
vt 0.593444 0.065316
vt 0.579605 0.071446
vt 0.581603 0.105335
vt 0.569856 0.098929
vt 0.583763 0.396387
vt 0.572170 0.410794
vt 0.886703 0.411368
vt 0.875044 0.396919
vt 0.876274 0.106578
vt 0.888020 0.100296
vt 0.881096 0.078866
vt 0.842969 0.085521
vt 0.861778 0.070653
vt 0.339473 0.736014
vt 0.326761 0.711707
vt 0.733471 0.599729
vt 0.670756 0.625881
vt 0.670756 0.736211
vt 0.689052 0.828050
vt 0.629335 0.828050
vt 0.623237 0.747239
vt 0.634349 0.747239
vt 0.642800 0.811466
vt 0.619062 0.811466
vt 0.677340 0.763432
vt 0.339473 0.711771
vt 0.674664 0.729895
vt 0.339473 0.420719
vt 0.674664 0.418030
vt 0.378256 0.420719
vt 0.378256 0.712000
vt 0.597438 0.737915
vt 0.597438 0.423383
vt 0.399296 0.711059
vt 0.399296 0.420719
vt 0.770213 0.418040
vt 0.770213 0.729111
vt 0.767537 0.757156
vt 0.697154 0.807567
vt 0.670807 0.807567
vt 0.658717 0.782894
vt 0.647151 0.782894
vn 0.000000 0.000000 -1.000000
vn 0.000000 0.000000 -1.000000
vn 0.000000 0.000000 -1.000000
vn 0.000000 0.000000 -1.000000
vn 0.000000 0.000000 -1.000000
vn 0.000000 0.000000 -1.000000
vn 1.000000 0.000000 0.000000
vn 1.000000 0.000000 0.000000
vn 1.000000 0.000000 0.000000
vn 0.000000 0.000000 1.000000
vn 0.000000 0.000000 1.000000
vn 0.000000 0.000000 1.000000
vn 0.000000 0.000000 1.000000
vn 0.000000 0.000000 1.000000
vn 0.000000 0.000000 1.000000
vn -1.000000 0.000000 0.000000
vn -1.000000 0.000000 0.000000
vn -1.000000 0.000000 0.000000
vn -0.577350 0.577350 0.577351
vn -0.408248 0.816497 0.408248
vn -0.577350 0.577350 -0.577351
vn 0.577350 0.577350 0.577351
vn 0.408248 0.816497 0.408248
vn -0.577350 0.577350 0.577351
vn -0.577350 0.577350 0.577351
vn 0.408248 0.816497 0.408248
vn -0.408248 0.816497 0.408248
vn 0.577350 0.577350 -0.577351
vn 0.408248 0.816497 -0.408248
vn 0.577350 0.577350 0.577351
vn -0.577350 0.577350 -0.577351
vn -0.408248 0.816497 -0.408248
vn 0.577350 0.577350 -0.577351
vn 0.577350 0.577350 -0.577351
vn -0.408248 0.816497 -0.408248
vn 0.408248 0.816497 -0.408248
vn -0.550882 -0.626943 -0.550882
vn -0.408248 0.408248 -0.816497
vn -0.408248 -0.408248 -0.816497
vn -0.550882 -0.626943 -0.550882
vn -0.408248 -0.408248 -0.816497
vn 0.550883 -0.626943 -0.550883
vn 0.550883 -0.626943 0.550883
vn 0.408248 0.408248 0.816497
vn 0.408248 -0.408248 0.816497
vn 0.550883 -0.626943 0.550883
vn 0.408248 -0.408248 0.816497
vn -0.550882 -0.626943 0.550882
vn 0.000000 0.000000 1.000000
vn 0.000000 0.000000 1.000000
vn 0.000000 0.000000 0.000000
vn 0.000000 0.000000 1.000000
vn 0.000000 0.000000 1.000000
vn 0.000000 0.000000 1.000000
vn 0.000000 0.000000 1.000000
vn 0.000000 0.000000 1.000000
vn 0.000000 0.000000 0.000000
vn 0.000000 0.000000 1.000000
vn 0.000000 0.000000 1.000000
vn 0.000000 0.000000 1.000000
vn 0.000000 0.000000 1.000000
vn 0.000000 0.000000 1.000000
vn 0.000000 0.000000 1.000000
vn 0.000000 0.000000 1.000000
vn 0.000000 0.000000 1.000000
vn 0.000000 0.000000 1.000000
vn 0.000000 0.000000 1.000000
vn 0.000000 0.000000 1.000000
vn 0.000000 0.000000 1.000000
vn 0.000000 0.000000 1.000000
vn 0.000000 0.000000 1.000000
vn 0.000000 0.000000 1.000000
vn 0.000000 0.000000 1.000000
vn 0.000000 0.000000 1.000000
vn 0.000000 0.000000 1.000000
vn 0.000000 0.000000 1.000000
vn 0.000000 0.000000 1.000000
vn 0.000000 0.000000 1.000000
vn 0.000000 0.000000 1.000000
vn 0.000000 0.000000 1.000000
vn 0.000000 0.000000 1.000000
vn 0.000000 0.000000 1.000000
vn 0.000000 0.000000 1.000000
vn 0.000000 0.000000 1.000000
vn 0.000000 0.000000 1.000000
vn 0.000000 0.000000 1.000000
vn 0.000000 0.000000 1.000000
vn 0.000000 0.000000 1.000000
vn 0.000000 0.000000 1.000000
vn 0.000000 0.000000 1.000000
vn 0.000000 0.000000 1.000000
vn 0.000000 0.000000 1.000000
vn 0.000000 0.000000 1.000000
vn 0.000000 0.000000 1.000000
vn 0.000000 0.000000 1.000000
vn 0.000000 0.000000 1.000000
vn 0.000000 0.000000 1.000000
vn 0.000000 0.000000 1.000000
vn 0.000000 0.000000 1.000000
vn 0.000000 0.000000 1.000000
vn 0.000000 0.000000 1.000000
vn 0.000000 0.000000 1.000000
vn 0.000000 0.000000 1.000000
vn 0.000000 0.000000 1.000000
vn 0.000000 0.000000 1.000000
vn 0.000000 0.000000 1.000000
vn 0.000000 0.000000 1.000000
vn 0.000000 0.000000 1.000000
vn 0.000000 0.000000 1.000000
vn 0.000000 0.000000 1.000000
vn 0.000000 0.000000 1.000000
vn 0.000000 0.000000 1.000000
vn 0.000000 0.000000 1.000000
vn 0.000000 0.000000 1.000000
vn 0.000000 0.000000 1.000000
vn 0.000000 0.000000 1.000000
vn 0.000000 0.000000 1.000000
vn 0.000000 0.000000 1.000000
vn 0.000000 0.000000 1.000000
vn 0.000000 0.000000 1.000000
vn 0.000000 0.000000 1.000000
vn 0.000000 0.000000 1.000000
vn 0.000000 0.000000 1.000000
vn 0.000000 0.000000 1.000000
vn 0.000000 0.000000 1.000000
vn 0.000000 0.000000 1.000000
vn 0.000000 0.000000 1.000000
vn 0.000000 0.000000 1.000000
vn 0.000000 0.000000 1.000000
vn 0.000000 0.000000 1.000000
vn 0.000000 0.000000 1.000000
vn 0.000000 0.000000 1.000000
vn 0.000000 0.000000 1.000000
vn 0.000000 0.000000 1.000000
vn 0.000000 0.000000 1.000000
vn 0.000000 0.000000 1.000000
vn 0.000000 0.000000 1.000000
vn 0.000000 0.000000 1.000000
vn 0.000000 0.000000 1.000000
vn 0.000000 0.000000 1.000000
vn 0.000000 0.000000 1.000000
vn 0.000000 0.000000 1.000000
vn 0.000000 0.000000 1.000000
vn 0.000000 0.000000 1.000000
vn 0.000000 0.000000 1.000000
vn 0.000000 0.000000 1.000000
vn 0.000000 0.000000 1.000000
vn 0.000000 0.000000 1.000000
vn 0.000000 0.000000 1.000000
vn 0.000000 0.000000 1.000000
vn -0.852911 0.522056 0.000000
vn -0.852911 0.522056 0.000000
vn -0.804299 0.594224 0.000000
vn -0.744764 0.667328 0.000000
vn -0.804299 0.594224 0.000000
vn -0.744764 0.667328 0.000000
vn 0.236119 0.971724 0.000000
vn 0.127888 0.991789 0.000000
vn 0.236119 0.971724 0.000000
vn 0.236119 0.971724 0.000000
vn 0.236119 0.971724 0.000000
vn 0.335405 0.942074 0.000000
vn 0.584773 0.811197 0.000000
vn 0.505016 0.863110 0.000000
vn 0.584773 0.811197 0.000000
vn -0.962411 0.271598 0.000000
vn -0.983883 0.178812 0.000000
vn -0.962411 0.271598 0.000000
vn -0.297757 0.954642 0.000000
vn -0.297757 0.954642 0.000000
vn -0.208567 0.978008 0.000000
vn 0.004929 0.999988 0.000000
vn -0.105685 0.994400 0.000000
vn 0.004929 0.999988 0.000000
vn 0.799566 0.600578 0.000000
vn 0.799566 0.600578 0.000000
vn 0.853987 0.520294 0.000000
vn -0.884028 0.467433 0.000000
vn -0.884028 0.467433 0.000000
vn -0.838191 0.545377 0.000000
vn -0.708533 0.705678 0.000000
vn -0.778530 0.627607 0.000000
vn -0.708533 0.705678 0.000000
vn 0.067843 0.997696 0.000000
vn -0.026734 0.999643 0.000000
vn 0.067843 0.997696 0.000000
vn 0.728178 0.685388 0.000000
vn 0.728178 0.685388 0.000000
vn 0.789742 0.613439 0.000000
vn 0.000000 0.000000 -1.000000
vn 0.000000 0.000000 -1.000000
vn 0.000000 0.000000 -1.000000
vn 0.000000 0.000000 -1.000000
vn 0.000000 0.000000 -1.000000
vn 0.000000 0.000000 0.000000
vn 0.000000 0.000000 -1.000000
vn 0.000000 0.000000 -1.000000
vn 0.000000 0.000000 -1.000000
vn 0.000000 0.000000 -1.000000
vn 0.000000 0.000000 -1.000000
vn 0.000000 0.000000 -1.000000
vn 0.000000 0.000000 -1.000000
vn 0.000000 0.000000 -1.000000
vn 0.000000 0.000000 -1.000000
vn 0.000000 0.000000 -1.000000
vn 0.000000 0.000000 -1.000000
vn 0.000000 0.000000 -1.000000
vn 0.000000 0.000000 -1.000000
vn 0.000000 0.000000 -1.000000
vn 0.000000 0.000000 -1.000000
vn 0.000000 0.000000 -1.000000
vn 0.000000 0.000000 -1.000000
vn 0.000000 0.000000 -1.000000
vn 0.000000 0.000000 -1.000000
vn 0.000000 0.000000 0.000000
vn 0.000000 0.000000 0.000000
vn 0.000000 0.000000 0.000000
vn 0.000000 0.000000 0.000000
vn 0.000000 0.000000 -1.000000
vn 0.000000 0.000000 -1.000000
vn 0.000000 0.000000 -1.000000
vn 0.000000 0.000000 -1.000000
vn 0.000000 0.000000 -1.000000
vn 0.000000 0.000000 -1.000000
vn 0.000000 0.000000 -1.000000
vn 0.000000 0.000000 -1.000000
vn 0.000000 0.000000 -1.000000
vn 0.000000 0.000000 -1.000000
vn 0.000000 0.000000 -1.000000
vn 0.000000 0.000000 -1.000000
vn 0.000000 0.000000 -1.000000
vn 0.000000 0.000000 1.000000
vn 0.000000 0.000000 1.000000
vn 0.000000 0.000000 1.000000
vn 0.000000 0.000000 1.000000
vn 0.000000 0.000000 1.000000
vn 0.000000 0.000000 1.000000
vn 0.000000 0.000000 1.000000
vn 0.000000 0.000000 1.000000
vn 0.000000 0.000000 1.000000
vn 0.000000 0.000000 1.000000
vn 0.000000 0.000000 1.000000
vn 0.000000 0.000000 1.000000
vn 0.000000 0.000000 1.000000
vn 0.000000 0.000000 1.000000
vn 0.000000 0.000000 1.000000
vn 0.000000 0.000000 1.000000
vn 0.000000 0.000000 1.000000
vn 0.000000 0.000000 1.000000
vn 0.000000 0.000000 1.000000
vn 0.000000 0.000000 1.000000
vn 0.000000 0.000000 1.000000
vn 0.000000 0.000000 1.000000
vn 0.000000 0.000000 1.000000
vn 0.000000 0.000000 0.000000
vn 0.000000 0.000000 1.000000
vn 0.000000 0.000000 1.000000
vn 0.000000 0.000000 0.000000
vn 0.923550 -0.022078 -0.382843
vn 0.999714 -0.023899 0.000000
vn 0.609136 0.612554 -0.503718
vn -0.923860 -0.004996 -0.382698
vn -0.999991 0.004235 0.000000
vn -0.999985 -0.005408 0.000000
vn -0.862364 -0.331097 -0.383018
vn -0.933557 -0.358429 0.000000
vn -0.828218 -0.409063 -0.383043
vn 0.000000 0.000000 -1.000000
vn 0.000000 0.000000 -1.000000
vn 0.000000 0.000000 -1.000000
vn 0.000000 0.000000 -1.000000
vn 0.000000 0.000000 -1.000000
vn 0.000000 0.000000 -1.000000
vn 0.000000 0.000000 -1.000000
vn 0.000000 0.000000 -1.000000
vn 0.000000 0.000000 -1.000000
vn 0.000000 0.000000 -1.000000
vn 0.000000 0.000000 -1.000000
vn 0.000000 0.000000 -1.000000
vn 0.000000 0.000000 -1.000000
vn 0.000000 0.000000 -1.000000
vn 0.000000 0.000000 -1.000000
vn 0.000000 0.000000 -1.000000
vn 0.000000 0.000000 -1.000000
vn 0.000000 0.000000 -1.000000
vn 0.000000 0.000000 -1.000000
vn 0.000000 0.000000 -1.000000
vn 0.000000 0.000000 -1.000000
vn 0.000000 0.000000 -1.000000
vn 0.000000 0.000000 -1.000000
vn 0.000000 0.000000 -1.000000
vn 0.000000 0.000000 -1.000000
vn 0.000000 0.000000 -1.000000
vn 0.000000 0.000000 -1.000000
vn 0.000000 0.000000 -1.000000
vn 0.000000 0.000000 -1.000000
vn 0.000000 0.000000 -1.000000
vn 0.888999 -0.250883 -0.383064
vn 0.962410 -0.271600 0.000000
vn 0.908842 -0.165173 -0.383045
vn 0.622467 0.335014 -0.707319
vn 0.594740 0.381871 -0.707431
vn 0.594740 0.381871 -0.707431
vn -0.175023 0.684515 -0.707676
vn -0.095350 0.700050 -0.707699
vn -0.175023 0.684515 -0.707676
vn -0.695325 0.126369 -0.707499
vn -0.695325 0.126369 -0.707499
vn -0.703721 0.066332 -0.707373
vn 0.408354 0.410645 -0.815241
vn 0.706733 -0.016895 -0.707279
vn 0.609136 0.612554 -0.503718
vn -0.706731 0.016895 -0.707281
vn -0.408353 -0.410645 -0.815242
vn -0.706731 0.016895 -0.707281
vn -0.706731 0.016895 -0.707281
vn -0.408353 -0.410645 -0.815242
vn -0.408353 -0.410645 -0.815242
vn -0.608467 0.612165 -0.504996
vn -0.407337 0.409812 -0.816168
vn 0.609136 0.612554 -0.503718
vn 0.609136 0.612554 -0.503718
vn -0.407337 0.409812 -0.816168
vn 0.408354 0.410645 -0.815241
vn -0.408353 -0.410645 -0.815242
vn -0.408353 -0.410645 -0.815242
vn 0.407337 -0.409812 -0.816169
vn 0.407337 -0.409812 -0.816169
vn -0.408353 -0.410645 -0.815242
vn 0.407337 -0.409812 -0.816169
vn -0.608467 0.612165 -0.504996
vn -0.707081 -0.003823 -0.707122
vn -0.407337 0.409812 -0.816168
vn 0.407337 -0.409812 -0.816169
vn 0.407337 -0.409812 -0.816169
vn 0.707081 0.003822 -0.707122
vn 0.707081 0.003822 -0.707122
vn 0.407337 -0.409812 -0.816169
vn 0.707081 0.003822 -0.707122
vn 0.680833 0.189311 -0.707551
vn 0.696712 0.117795 -0.707613
vn 0.680833 0.189311 -0.707551
s off
g initialShadingGroup polySurface8
f 8/1/1 7/2/2 9/3/3
f 9/3/4 7/2/5 1/4/6
f 9/5/7 1/20/8 2/21/9
f 10/6/10 2/7/11 6/8/12
f 6/8/13 2/7/14 3/9/15
f 6/10/16 3/16/17 7/11/18
f 3/16/19 4/17/20 7/11/21
f 2/18/22 5/13/23 3/19/24
f 3/19/25 5/13/26 4/12/27
f 1/20/28 5/22/29 2/21/30
f 7/23/31 4/12/32 1/24/33
f 1/24/34 4/12/35 5/13/36
f 6/10/37 7/11/38 8/25/39
f 6/14/40 8/26/41 9/15/42
f 9/5/43 2/21/44 10/27/45
f 9/15/46 10/28/47 6/14/48
f 11/29/49 13/30/50 12/31/51
f 15/33/52 14/34/53 16/32/54
f 17/35/55 19/36/56 18/37/57
f 20/38/58 31/39/59 28/59/60
f 20/38/61 34/40/62 31/39/63
f 20/38/64 27/41/65 34/40/66
f 27/41/67 35/42/68 34/40/69
f 27/41/70 36/44/71 35/42/72
f 27/41/73 26/43/74 36/44/75
f 26/43/76 32/45/77 31/39/78
f 26/43/79 31/39/80 36/44/81
f 26/43/82 25/46/83 32/45/84
f 25/46/85 33/47/86 32/45/87
f 25/46/88 40/48/89 33/47/90
f 25/46/91 24/49/92 41/51/93
f 25/46/94 41/51/95 40/48/96
f 24/49/97 23/50/98 41/51/99
f 23/50/100 22/52/101 38/53/102
f 23/50/103 38/53/104 42/58/105
f 23/50/106 42/58/107 41/51/108
f 22/52/109 29/54/110 39/60/111
f 22/52/112 39/60/113 38/53/114
f 22/52/115 30/56/116 29/54/117
f 22/52/118 21/55/119 30/56/120
f 21/55/121 20/38/122 30/56/123
f 20/38/124 28/59/125 30/56/126
f 40/48/127 37/57/128 31/39/129
f 40/48/130 31/39/131 33/47/132
f 40/48/133 42/58/134 38/53/135
f 40/48/136 38/53/137 37/57/138
f 37/57/139 28/59/140 31/39/141
f 37/57/142 29/54/143 28/59/144
f 37/57/145 39/60/146 29/54/147
f 36/44/148 31/39/149 34/40/150
f 63/161/151 53/61/152 75/160/153
f 75/160/154 53/61/155 43/62/156
f 75/159/157 43/63/158 44/64/159
f 75/159/160 44/64/161 54/158/162
f 54/157/163 44/65/164 45/66/165
f 59/144/166 48/71/167 49/72/168
f 59/143/169 49/73/170 76/142/171
f 76/142/172 49/73/173 50/74/174
f 76/141/175 50/75/176 67/140/177
f 67/139/178 50/76/179 61/138/180
f 61/138/181 50/76/182 51/77/183
f 64/136/184 51/78/185 52/79/186
f 64/81/187 52/80/188 53/82/189
f 57/83/190 58/87/191 56/84/192
f 56/84/193 58/87/194 55/86/195
f 54/85/196 55/86/197 63/94/198
f 59/88/199 67/89/200 58/87/201
f 67/89/202 60/90/203 58/87/204
f 61/91/205 65/92/206 60/90/207
f 65/92/208 62/93/209 60/90/210
f 62/93/211 63/94/212 60/90/213
f 58/87/214 60/90/215 55/86/216
f 55/86/217 60/90/218 63/94/219
f 63/95/220 62/96/221 64/97/222
f 62/96/223 65/98/224 64/97/225
f 64/97/226 65/98/227 61/99/228
f 67/101/229 61/99/230 60/100/231
f 47/103/232 46/104/233 48/105/234
f 46/104/235 45/111/236 48/105/237
f 52/107/238 51/108/239 53/106/240
f 51/108/241 50/109/242 53/106/243
f 49/110/244 48/105/245 50/109/246
f 44/112/247 43/113/248 45/111/249
f 43/113/250 53/106/251 45/111/252
f 45/111/253 53/106/254 48/105/255
f 48/105/256 53/106/257 50/109/258
f 69/145/259 58/134/260 57/114/261
f 70/153/262 56/117/263 55/118/264
f 70/153/265 55/118/266 54/119/267
f 67/102/268 59/121/269 76/120/270
f 66/123/271 59/121/272 69/122/273
f 69/122/274 72/124/275 66/123/276
f 66/123/277 72/124/278 68/125/279
f 68/125/280 72/124/281 73/126/282
f 73/126/283 72/124/284 74/127/285
f 73/126/286 74/127/287 71/129/288
f 71/129/289 74/127/290 70/128/291
f 71/129/292 70/128/293 54/130/294
f 54/130/295 63/131/296 75/132/297
f 59/133/298 58/134/299 69/145/300
f 63/135/301 64/81/302 53/82/303
f 51/78/304 64/136/305 61/137/306
f 59/144/307 66/146/308 48/71/309
f 72/147/310 69/145/311 57/114/312
f 66/146/313 68/148/314 48/71/315
f 48/71/316 68/148/317 47/70/318
f 56/116/319 74/149/320 57/115/321
f 57/115/322 74/149/323 72/150/324
f 47/69/325 68/151/326 46/68/327
f 46/68/328 68/151/329 73/152/330
f 56/117/331 70/153/332 74/154/333
f 46/67/334 73/155/335 45/66/336
f 45/66/337 73/155/338 71/156/339
f 45/66/340 71/156/341 54/157/342
