# This file uses centimeters as units for non-parametric coordinates.

mtllib Head_Hi.mtl
g default
v -0.948367 0.936713 -0.864100
v -0.948367 2.500141 -0.864100
v 1.014859 2.500141 -0.864100
v 1.014859 0.936713 -0.864100
v -0.948367 0.936713 1.101100
v 1.014859 0.936713 1.101100
v 1.014859 2.500141 1.101100
v -0.948367 2.500141 1.101100
vt 0.338041 0.001992
vt 0.600373 0.001992
vt 0.338041 0.331738
vt 0.600373 0.331738
vt 0.809431 0.992628
vt 0.547099 0.992628
vt 0.809431 0.662881
vt 0.547099 0.662881
vt 0.001856 0.001992
vt 0.331272 0.001992
vt 0.001856 0.331738
vt 0.331272 0.331738
vt 0.997788 0.337781
vt 0.668372 0.337781
vt 0.997788 0.008035
vt 0.668372 0.008035
vt 0.535736 0.997942
vt 0.273404 0.997942
vt 0.535736 0.668526
vt 0.273404 0.668526
vt 0.003525 0.002120
vt 0.996080 0.001802
vt 0.003844 0.998662
vt 0.996399 0.998344
vn 0.000000 0.000000 -1.000000
vn 0.000000 0.000000 -1.000000
vn 0.000000 0.000000 -1.000000
vn 0.000000 0.000000 -1.000000
vn 0.000000 0.000000 1.000000
vn 0.000000 0.000000 1.000000
vn 0.000000 0.000000 1.000000
vn 0.000000 0.000000 1.000000
vn 0.000000 -1.000000 0.000000
vn 0.000000 -1.000000 0.000000
vn 0.000000 -1.000000 0.000000
vn 0.000000 -1.000000 0.000000
vn 1.000000 -0.000000 0.000000
vn 1.000000 -0.000000 0.000000
vn 1.000000 0.000000 0.000000
vn 1.000000 0.000000 0.000000
vn 0.000000 1.000000 0.000000
vn 0.000000 1.000000 0.000000
vn 0.000000 1.000000 0.000000
vn 0.000000 1.000000 0.000000
vn -1.000000 0.000000 -0.000000
vn -1.000000 0.000000 -0.000000
vn -1.000000 0.000000 0.000000
vn -1.000000 0.000000 0.000000
s 1
g Box002
usemtl lambert2SG
f 1/17/1 2/18/2 4/19/3
f 4/19/3 2/18/2 3/20/4
s 2
f 5/21/5 6/22/6 8/23/7
f 8/23/7 6/22/6 7/24/8
s 3
f 1/9/9 4/10/10 5/11/11
f 5/11/11 4/10/10 6/12/12
s 4
f 4/1/13 3/2/14 6/3/15
f 6/3/15 3/2/14 7/4/16
s 5
f 3/13/17 2/14/18 7/15/19
f 7/15/19 2/14/18 8/16/20
s 6
f 2/5/21 1/6/22 8/7/23
f 8/7/23 1/6/22 5/8/24
