# This file uses centimeters as units for non-parametric coordinates.

mtllib LeftLeg_Hi.mtl
g default
v 0.087444 0.097200 -1.765477
v 0.087444 9.208000 -1.765477
v 3.922745 9.208000 -1.765477
v 3.922745 0.097200 -1.765477
v 0.087444 0.097200 2.053123
v 3.922745 0.097200 2.053123
v 3.922745 9.208000 2.053123
v 0.087444 9.208000 2.053123
vt 0.000000 0.000000
vt 1.000000 0.000000
vt 1.000000 1.000000
vt 0.000000 1.000000
vt 0.000000 1.000000
vt 0.000000 0.000000
vt 1.000000 0.000000
vt 1.000000 1.000000
vt 0.000000 1.000000
vt 0.000000 0.000000
vt 1.000000 0.000000
vt 1.000000 1.000000
vt 0.000000 1.000000
vt 1.000000 0.000000
vt 1.000000 1.000000
vt 0.000000 1.000000
vt 0.000000 0.000000
vt 1.000000 0.000000
vt 1.000000 1.000000
vt 0.000000 1.000000
vt 0.000000 0.000000
vt 1.000000 1.000000
vn 0.000000 0.000000 -1.000000
vn 0.000000 0.000000 -1.000000
vn 0.000000 0.000000 -1.000000
vn 0.000000 0.000000 -1.000000
vn 0.000000 0.000000 1.000000
vn 0.000000 0.000000 1.000000
vn 0.000000 0.000000 1.000000
vn 0.000000 0.000000 1.000000
vn 0.000000 -1.000000 0.000000
vn 0.000000 -1.000000 0.000000
vn 0.000000 -1.000000 0.000000
vn 0.000000 -1.000000 0.000000
vn 1.000000 0.000000 0.000000
vn 1.000000 0.000000 0.000000
vn 1.000000 0.000000 0.000000
vn 1.000000 0.000000 0.000000
vn 0.000000 1.000000 0.000000
vn 0.000000 1.000000 0.000000
vn 0.000000 1.000000 0.000000
vn 0.000000 1.000000 0.000000
vn -1.000000 0.000000 0.000000
vn -1.000000 0.000000 0.000000
vn -1.000000 0.000000 0.000000
vn -1.000000 0.000000 0.000000
s 1
g polySurface3 Box008
usemtl lambert7SG
f 4/1/1 1/2/2 3/4/3
f 3/4/3 1/2/2 2/3/4
s 2
f 8/5/5 5/6/6 7/8/7
f 7/8/7 5/6/6 6/7/8
s 3
f 5/9/9 1/10/10 6/12/11
f 6/12/11 1/10/10 4/11/12
s 4
f 6/13/13 4/1/14 7/15/15
f 7/15/15 4/1/14 3/14/16
s 5
f 7/16/17 3/17/18 8/19/19
f 8/19/19 3/17/18 2/18/20
s 6
f 8/20/21 2/21/22 5/22/23
f 5/22/23 2/21/22 1/2/24
